<svg width="185" height="170" viewBox="0 0 185 170" fill="none" xmlns="http://www.w3.org/2000/svg">
<ellipse cx="92.5" cy="85" rx="92.5" ry="85" fill="white"/>
<ellipse cx="92.5" cy="85" rx="82.5" ry="80" fill="black"/>
<path d="M82.936 93.888C82.936 98.496 81.184 102.144 77.68 104.832C74.176 107.52 69.928 108.864 64.936 108.864C61.576 108.864 58.792 108.024 56.584 106.344C54.424 104.616 53.224 103.152 52.984 101.952C53.512 100.368 54.64 98.592 56.368 96.624C58.096 94.656 59.656 93.456 61.048 93.024C63.496 94.608 65.776 98.136 67.888 103.608C71.008 103.512 72.568 101.808 72.568 98.496C72.568 96.672 71.824 94.44 70.336 91.8C68.896 89.112 67.312 86.616 65.584 84.312C63.856 81.96 62.248 79.344 60.76 76.464C59.32 73.536 58.6 70.944 58.6 68.688C58.6 65.04 60.064 62.16 62.992 60.048C65.968 57.936 69.304 56.88 73 56.88C76.696 56.88 79.552 57.672 81.568 59.256C83.632 60.84 84.664 62.64 84.664 64.656C84.664 66.672 83.896 68.736 82.36 70.848C80.824 72.96 79.288 74.64 77.752 75.888L75.448 77.76C76.024 78.528 76.72 79.512 77.536 80.712C78.352 81.912 79.456 83.952 80.848 86.832C82.24 89.712 82.936 92.064 82.936 93.888ZM77.392 70.272C78.064 69.648 78.664 68.904 79.192 68.04C79.72 67.128 79.984 66.192 79.984 65.232C79.984 64.224 79.408 63.384 78.256 62.712C77.104 62.04 75.712 61.704 74.08 61.704C72.496 61.704 71.152 62.088 70.048 62.856C68.992 63.576 68.464 64.464 68.464 65.52C68.464 66.528 68.8 67.728 69.472 69.12C70.192 70.464 70.888 71.592 71.56 72.504L72.64 73.872C73.12 73.632 73.864 73.128 74.872 72.36C75.928 71.592 76.768 70.896 77.392 70.272ZM121.16 108.864C119.288 108.864 117.752 108.264 116.552 107.064C115.352 105.816 114.752 104.16 114.752 102.096C114.752 99.984 115.808 94.056 117.92 84.312C116.672 84.024 114.656 83.88 111.872 83.88C109.088 83.88 106.424 84.12 103.88 84.6C101.432 95.64 100.136 103.032 99.9922 106.776C98.2642 107.736 94.6162 108.216 89.0482 108.216H88.3282C88.4722 106.104 89.7442 99.792 92.1442 89.28C94.5922 78.768 96.1042 70.872 96.6802 65.592C96.6802 64.824 96.4402 63.912 95.9602 62.856C95.4802 61.752 95.0002 60.864 94.5202 60.192L93.7282 59.184L93.9442 58.104C96.7762 57.288 101.264 56.88 107.408 56.88C107.984 57.84 108.272 59.4 108.272 61.56C108.272 63.72 107.192 69.672 105.032 79.416H118.928C120.608 70.872 121.472 64.776 121.52 61.128C121.52 60.312 121.472 59.64 121.376 59.112C125.216 57.624 129.08 56.88 132.968 56.88C133.112 57.168 133.184 57.888 133.184 59.04C133.184 61.68 132.008 68.472 129.656 79.416C127.352 90.36 126.2 97.32 126.2 100.296C126.2 101.592 126.416 102.24 126.848 102.24C127.28 102.24 128.744 101.616 131.24 100.368L132.536 103.032C128.264 106.92 124.472 108.864 121.16 108.864Z" fill="white"/>
</svg>
